<svg width="25" height="24" viewBox="0 0 25 24" fill="none" xmlns="http://www.w3.org/2000/svg">
<path fill-rule="evenodd" clip-rule="evenodd" d="M12.2148 14.5C13.8748 14.5 15.2148 13.16 15.2148 11.5V5.5C15.2148 3.84 13.8748 2.5 12.2148 2.5C10.5548 2.5 9.21484 3.84 9.21484 5.5V11.5C9.21484 13.16 10.5548 14.5 12.2148 14.5ZM11.2148 5.5C11.2148 4.95 11.6648 4.5 12.2148 4.5C12.7648 4.5 13.2148 4.95 13.2148 5.5V11.5C13.2148 12.05 12.7648 12.5 12.2148 12.5C11.6648 12.5 11.2148 12.05 11.2148 11.5V5.5ZM12.2148 16.5C14.9748 16.5 17.2148 14.26 17.2148 11.5H19.2148C19.2148 15.03 16.6048 17.93 13.2148 18.42V21.5H11.2148V18.42C7.82484 17.93 5.21484 15.03 5.21484 11.5H7.21484C7.21484 14.26 9.45484 16.5 12.2148 16.5Z" fill="white"/>
</svg>
